<svg id="Camada_1" data-name="Camada 1" xmlns="http://www.w3.org/2000/svg" viewBox="0 0 567 567"><defs><style>.cls-1{fill:#4338ca;}.cls-2{fill:#0f9178;}</style></defs><circle class="cls-1" cx="283.5" cy="283.5" r="283.5"/><path class="cls-2" d="M45,126c63.64-38.18,72,9,72,9s-63,63,9,63,36,45,72,0S81,297,81,297L45,252l-27-9s0,2-9,9l-9,7S0,153,45,126Z"/><path class="cls-2" d="M180,207"/><path class="cls-2" d="M495,225"/><path class="cls-2" d="M297,81c36-63,45-72,45-72l45,9s81,36,135,108-36,9-36,9l9,27-27,9H405l-54-9H333l-63-27,9-36V54L306,9l9,27"/><path class="cls-2" d="M288,387c18,0,162-36,153-36s45,18,45,18l27,54v27s-45,72-99,81-45-9-45-9l-63-27-18-45s-72,63-72,54-36-27-36-27l27-54,36-90s18,36,27,36"/></svg>