<svg id="visual" viewBox="0 0 1920 300" width="1920" height="300" xmlns="http://www.w3.org/2000/svg" xmlns:xlink="http://www.w3.org/1999/xlink" version="1.1"><rect x="0" y="0" width="1920" height="300" fill="#fffbf4"></rect><path d="M0 185L83 187L167 176L250 182L334 171L417 183L501 187L584 178L668 185L751 176L835 181L918 171L1002 183L1085 186L1169 183L1252 187L1336 173L1419 186L1503 179L1586 184L1670 173L1753 183L1837 176L1920 184L1920 0L1837 0L1753 0L1670 0L1586 0L1503 0L1419 0L1336 0L1252 0L1169 0L1085 0L1002 0L918 0L835 0L751 0L668 0L584 0L501 0L417 0L334 0L250 0L167 0L83 0L0 0Z" fill="#ffffff"></path><path d="M0 140L83 141L167 142L250 146L334 153L417 156L501 141L584 144L668 155L751 148L835 157L918 143L1002 153L1085 141L1169 143L1252 144L1336 145L1419 156L1503 142L1586 145L1670 152L1753 145L1837 146L1920 154L1920 0L1837 0L1753 0L1670 0L1586 0L1503 0L1419 0L1336 0L1252 0L1169 0L1085 0L1002 0L918 0L835 0L751 0L668 0L584 0L501 0L417 0L334 0L250 0L167 0L83 0L0 0Z" fill="#d5d2e9"></path><path d="M0 113L83 119L167 124L250 126L334 128L417 118L501 123L584 116L668 112L751 126L835 114L918 115L1002 127L1085 124L1169 114L1252 110L1336 111L1419 120L1503 125L1586 126L1670 114L1753 122L1837 116L1920 116L1920 0L1837 0L1753 0L1670 0L1586 0L1503 0L1419 0L1336 0L1252 0L1169 0L1085 0L1002 0L918 0L835 0L751 0L668 0L584 0L501 0L417 0L334 0L250 0L167 0L83 0L0 0Z" fill="#aaa6d2"></path><path d="M0 87L83 87L167 96L250 98L334 89L417 82L501 91L584 83L668 88L751 95L835 84L918 89L1002 81L1085 87L1169 85L1252 83L1336 93L1419 81L1503 92L1586 86L1670 95L1753 96L1837 87L1920 95L1920 0L1837 0L1753 0L1670 0L1586 0L1503 0L1419 0L1336 0L1252 0L1169 0L1085 0L1002 0L918 0L835 0L751 0L668 0L584 0L501 0L417 0L334 0L250 0L167 0L83 0L0 0Z" fill="#7f7dbc"></path><path d="M0 64L83 54L167 65L250 66L334 54L417 55L501 61L584 55L668 59L751 63L835 66L918 55L1002 66L1085 57L1169 52L1252 61L1336 63L1419 50L1503 60L1586 63L1670 53L1753 63L1837 57L1920 63L1920 0L1837 0L1753 0L1670 0L1586 0L1503 0L1419 0L1336 0L1252 0L1169 0L1085 0L1002 0L918 0L835 0L751 0L668 0L584 0L501 0L417 0L334 0L250 0L167 0L83 0L0 0Z" fill="#5256a5"></path><path d="M0 20L83 20L167 32L250 33L334 34L417 28L501 26L584 32L668 21L751 25L835 33L918 32L1002 25L1085 21L1169 20L1252 34L1336 33L1419 24L1503 29L1586 35L1670 27L1753 37L1837 28L1920 31L1920 0L1837 0L1753 0L1670 0L1586 0L1503 0L1419 0L1336 0L1252 0L1169 0L1085 0L1002 0L918 0L835 0L751 0L668 0L584 0L501 0L417 0L334 0L250 0L167 0L83 0L0 0Z" fill="#0c328e"></path></svg>